<svg xmlns="http://www.w3.org/2000/svg" viewBox="0 0 99.66 31.33"><defs><style>.cls-1{fill:#fff;opacity:0.5;}.cls-2{fill:#f57c00;}</style></defs><title>Fichier 1</title><g id="Calque_2" data-name="Calque 2"><g id="Calque_1-2" data-name="Calque 1"><path class="cls-1" d="M40.18,6.55A2.1,2.1,0,0,1,42.3,8.92c0,1.87-2.49,5-3.08,5-.4.25-1.31-.41-.53-1.25,1.59-1.71-.5-1.77-.5-3.61C38.19,7.67,38.81,6.55,40.18,6.55Zm13,1.28c0,1-3.67,13.23-3.67,16.25,0,1.06.25,2.09,1.28,2.09.59,0,1-.65,1.25-.65.93,0,.12,4.51-3.52,4.51-3.36,0-3.8-3-3.8-4.17,0-3,2.86-16.37,3.8-18.49a1.37,1.37,0,0,1,1.34-.87C50.58,6.49,53.19,6.83,53.19,7.83Zm8.4,0c0,1-3.67,13.29-3.67,16.31,0,1,.28,2,1.28,2a1.46,1.46,0,0,0,1-.44,6.83,6.83,0,0,0,1.46-2.33c.22-.62.62-1.74,1.68-1.74a.78.78,0,0,1,.53.22c.41.47.16,1.62-.06,2.12-1.21,3.17-3.36,6-6.54,6a3.93,3.93,0,0,1-4.11-4.17c0-3,2.86-16.37,3.8-18.49a1.37,1.37,0,0,1,1.34-.87C59,6.49,61.6,6.83,61.6,7.83ZM68,30c-4.86,0-6.88-3.14-6.88-6.29,0-3.83,3-9.74,8.68-9.74,6.69,0,1.25,10.4-3.7,10.4a3.51,3.51,0,0,0,3.27,1.93A5,5,0,0,0,74,22.77a1.62,1.62,0,0,1,1.43-1.12C77.66,21.65,74.48,30,68,30Zm-2.15-7.91c1.4-.31,3.8-2.18,3.8-3.86v0c0-.25-.12-.44-.56-.44C67.79,17.79,66.14,19.91,65.89,22.12ZM82.23,7.83c0,.16-.93,4-1.9,8a7.86,7.86,0,0,1,4.51-1.68c4.17,0,4.54,6.82-.4,8.28.25,1,.93,3.77,2.55,3.77.93,0,1.65-1.21,2.3-2.77.22-.62.62-1.74,1.68-1.74s.75,1.68.47,2.33c-1.21,3.17-3.18,6-6.35,6-3.8,0-6.16-8-5.17-9,.25-.25,3.64-1.24,3.64-2.68,0-.41-.19-.81-.65-.81-1.53,0-3.08,2-3.7,2.83C78,25,78,29.87,75.76,29.87c-2.05,0-2.86-1.34-2.55-3.21.25-1.24.81-3.89,1.43-6.85.09-.53,2.37-11.24,2.93-12.45.34-.81.93-.87,1.9-.87C80.12,6.49,82.23,7,82.23,7.83ZM93.35,30c-5.26,0-5.85-7.1-2.9-8.22,1.77-2.58,2.27-8,6.44-8,2.93,0,3.46,3.24,1.93,3-1.12,1.12.68,6.54.12,9A5.13,5.13,0,0,1,93.35,30Zm.22-4.08c1.65,0,.65-3.49.4-6.6,0,0-.25.44-1.31,2.46,1,0,1.15,1.49.5,1.49S91.91,25.95,93.56,25.95Z"/><path class="cls-2" d="M18.89,0C9.95,0,1.58,7,.2,15.69S4.94,31.34,13.88,31.33s17.31-7,18.7-15.69S27.83,0,18.89,0ZM24.6,9.25H22.67A.71.71,0,0,0,22,10v0h0l0,14.84h0v0h0a.64.64,0,0,1-.64.6H11.41a.64.64,0,0,1-.64-.6h0v0h0l0-14.84h0v0a.71.71,0,0,0-.71-.71H8.17V5.85H24.6Z"/></g></g></svg>